P2
33 21
99
 0  0  0  0  0  0  0  0  0  0  0  0  0  0  0  0  0  0  0  0  0  0  0  0  0  0  0  0  0  0  0  0  0 
 0  0  0 99 99 99 99 99  0  0  0  0  0  0  0  0  0  0  0  0  0  0  0  0  0  0  0  0  0  0  0  0  0 
 0  0 99 99 99 99 99 99  0  0  0  0  0  0  0  0  0  0  0  0  0  0  0  0  0  0  0  0  0  0  0  0  0 
 0  0 99 99 99 99 99 99  0  0  0  0  0  0 99 99 99  0  0  0  0  0  0  0  0  0  0  0  0  0  0  0  0 
 0 99 99 99  0  0 99 99  0  0  0  0  0  0 99 99 99  0  0  0  0  0  0  0  0  0  0  0  0  0  0  0  0 
 0 99 99 99  0  0 99 99  0  0  0  0  0  0 99 99 99  0  0  0  0  0  0  0  0  0  0  0  0  0  0  0  0 
 0 99 99  0  0  0 99 99  0  0 99 99  0  0  0 99 99  0  0  0  0  0  0 99 99  0  0  0  0  0  0  0  0 
 0 99 99  0  0  0  0 99  0 99 99 99 99  0  0 99 99  0 99 99 99  0  0 99 99 99  0  0  0  0  0  0  0 
99 99 99  0  0  0  0  0 99 99 99 99 99  0  0 99 99  0 99 99 99  0 99 99 99 99 99  0  0  0  0  0  0 
99 99 99  0  0  0  0  0 99 99  0 99 99 99  0 99 99  0 99 99  0  0 99 99  0 99 99  0  0  0  0  0  0 
99 99 99  0  0  0  0  0 99 99  0  0 99 99  0 99 99  0 99 99  0 99 99 99  0 99 99  0  0  0  0  0  0 
99 99 99  0  0  0  0  0 99 99  0  0 99 99  0 99 99 99 99  0  0 99 99 99  0 99 99  0  0  0  0  0  0 
99 99 99  0  0  0  0 99 99 99  0  0 99 99  0 99 99 99 99  0  0 99 99 99 99 99 99  0  0  0  0  0  0 
99 99 99  0  0  0  0 99 99 99  0  0 99 99  0 99 99 99 99  0  0 99 99 99 99 99 99  0  0  0  0  0  0 
 0 99 99  0  0  0  0 99 99 99  0  0 99 99  0 99 99 99 99 99  0 99 99 99  0  0  0  0  0  0  0  0  0 
 0 99 99 99  0  0  0 99 99 99  0  0 99 99  0 99 99  0 99 99  0 99 99 99  0  0 99  0  0  0  0  0  0 
 0 99 99 99  0  0  0 99 99 99  0  0 99 99  0 99 99  0 99 99 99  0 99 99  0  0 99  0  0  0  0  0  0 
 0  0 99 99 99 99 99 99 99 99  0 99 99 99  0 99 99  0 99 99 99  0 99 99 99 99 99  0  0  0  0  0  0 
 0  0 99 99 99 99 99  0 99 99 99 99 99  0 99 99 99 99  0 99 99 99 99 99 99 99 99  0  0  0  0  0  0 
 0  0  0 99 99 99 99  0  0 99 99 99  0  0 99 99 99 99  0 99 99 99  0 99 99 99  0  0  0  0  0  0  0 
 0  0  0  0  0  0  0  0  0  0  0  0  0  0  0  0  0  0  0  0  0  0  0  0  0  0  0  0  0  0  0  0  0 
